<?xml version="1.0" encoding="UTF-8" standalone="no"?>
<svg
   width="512"
   height="512"
   viewBox="0 0 135.46666 135.46666"
   version="1.1"
   id="svg2685"
   inkscape:version="1.1 (c4e8f9ed74, 2021-05-24)"
   sodipodi:docname="xo.png.svg"
   xmlns:inkscape="http://www.inkscape.org/namespaces/inkscape"
   xmlns:sodipodi="http://sodipodi.sourceforge.net/DTD/sodipodi-0.dtd"
   xmlns="http://www.w3.org/2000/svg"
   xmlns:svg="http://www.w3.org/2000/svg"
   xmlns:rdf="http://www.w3.org/1999/02/22-rdf-syntax-ns#"
   xmlns:cc="http://creativecommons.org/ns#"
   xmlns:dc="http://purl.org/dc/elements/1.1/">
  <defs
     id="defs2679" />
  <sodipodi:namedview
     id="base"
     pagecolor="#ffffff"
     bordercolor="#666666"
     borderopacity="1.0"
     inkscape:pageopacity="0"
     inkscape:pageshadow="2"
     inkscape:zoom="0.7"
     inkscape:cx="295"
     inkscape:cy="207.85714"
     inkscape:document-units="px"
     inkscape:current-layer="text845-3"
     inkscape:document-rotation="0"
     showgrid="false"
     inkscape:window-width="1920"
     inkscape:window-height="1016"
     inkscape:window-x="0"
     inkscape:window-y="64"
     inkscape:window-maximized="0"
     inkscape:pagecheckerboard="false"
     inkscape:showpageshadow="false"
     units="px"
     width="512px" />
  <metadata
     id="metadata2682">
    <rdf:RDF>
      <cc:Work
         rdf:about="">
        <dc:format>image/svg+xml</dc:format>
        <dc:type
           rdf:resource="http://purl.org/dc/dcmitype/StillImage" />
      </cc:Work>
    </rdf:RDF>
  </metadata>
  <g
     inkscape:label="Layer 1"
     inkscape:groupmode="layer"
     id="layer1">
    <g
       id="g51"
       transform="matrix(1.0557674,0,0,1.0582571,-9.4345806,-4.8905641)">
      <g
         aria-label="x"
         transform="scale(0.96482163,1.036461)"
         id="text845-3"
         style="font-size:163.6px;line-height:1.25;font-family:'Ubuntu Mono Ligaturized';-inkscape-font-specification:'Ubuntu Mono Ligaturized';letter-spacing:-5.02846px;fill:#00aeff;stroke-width:3.59019">
        <path
           d="m 66.685653,95.686813 q -1.636,-3.272 -4.09,-7.1984 -2.2904,-3.9264 -5.0716,-8.0164 -2.781201,-4.2536 -5.889601,-8.343601 -2.9448,-4.09 -5.8896,-7.6892 -2.9448,3.7628 -6.2168,7.8528 -3.272,4.090001 -6.3804,8.343601 -2.9448,4.09 -5.562401,8.0164 -2.6176,3.9264 -4.4172,7.0348 H 9.2620508 q 5.3988002,-9.816 13.0880002,-20.1228 7.852801,-10.470401 15.378401,-19.795601 L 10.407251,19.776411 h 15.2148 L 46.072052,46.279612 64.886053,19.776411 h 14.3968 L 54.252052,54.950412 q 7.362001,9.6524 14.724001,20.122801 7.5256,10.4704 12.7608,20.6136 z"
           id="path844" />
      </g>
      <g
         aria-label="o"
         transform="scale(1.0075407,0.99251573)"
         id="text845-3-7"
         style="font-size:156.663px;line-height:1.25;font-family:'Ubuntu Mono';-inkscape-font-specification:'Ubuntu Mono';letter-spacing:-4.81525px;fill:#00aeff;stroke-width:3.43799">
        <path
           d="m 96.901288,39.609316 q -11.321349,0 -17.899971,8.87349 -6.578622,8.796994 -6.578622,24.17261 0,15.375616 6.502126,24.249106 6.578622,8.796998 17.976467,8.796998 11.244852,0 17.823472,-8.873493 6.57863,-8.87349 6.57863,-24.172611 0,-15.222625 -6.57863,-24.096115 -6.57862,-8.949985 -17.823472,-8.949985 z m 0,-11.933314 q 18.358942,0 28.838842,11.933314 10.4799,11.933314 10.4799,33.0461 0,21.036291 -10.4799,33.046104 -10.4799,11.93331 -28.838842,11.93331 -18.43544,0 -28.915338,-11.93331 -10.403402,-12.009813 -10.403402,-33.046104 0,-21.112786 10.403402,-33.0461 10.479898,-11.933314 28.915338,-11.933314 z"
           id="path847" />
      </g>
      <text
         xml:space="preserve"
         style="font-style:normal;font-weight:normal;font-size:63.15px;line-height:1.25;font-family:sans-serif;fill:#abb2bf;fill-opacity:1;stroke:none;stroke-width:2.64767"
         x="334.35513"
         y="81.036377"
         id="text841"
         transform="scale(0.80327266,1.2449073)"><tspan
           sodipodi:role="line"
           id="tspan839"
           x="334.35513"
           y="81.036377"
           style="font-style:normal;font-variant:normal;font-weight:bold;font-stretch:normal;font-size:63.15px;font-family:'Ubuntu Mono';-inkscape-font-specification:'Ubuntu Mono Bold';fill:#abb2bf;fill-opacity:1;stroke-width:2.64767" /></text>
      <text
         xml:space="preserve"
         style="font-style:normal;font-weight:normal;font-size:84.9664px;line-height:1.25;font-family:sans-serif;fill:#000000;fill-opacity:1;stroke:none;stroke-width:0.236017;stroke-miterlimit:4;stroke-dasharray:none;stroke-opacity:1"
         x="82.270027"
         y="105.11292"
         id="text859"
         transform="matrix(0.93621879,0.00506234,-0.00443727,1.0681024,0,0)"><tspan
           sodipodi:role="line"
           id="tspan857"
           x="82.270027"
           y="105.11292"
           style="font-style:normal;font-variant:normal;font-weight:bold;font-stretch:normal;font-size:84.9664px;font-family:'Ubuntu Mono';-inkscape-font-specification:'Ubuntu Mono Bold';fill:#00aeff;fill-opacity:1;stroke:none;stroke-width:0.236017;stroke-miterlimit:4;stroke-dasharray:none;stroke-opacity:1" /></text>
    </g>
  </g>
</svg>
